<svg viewBox="0 0 1080 640" xmlns="http://www.w3.org/2000/svg" font-family="Segoe UI, Arial, sans-serif">
  <defs>
    <marker id="arrow" viewBox="0 0 10 10" refX="9" refY="5" markerWidth="7" markerHeight="7" orient="auto-start-reverse">
      <path d="M 0 0 L 10 5 L 0 10 z" fill="#5f6368"/>
    </marker>
  </defs>

  <rect width="1080" height="640" fill="#fafbfc"/>
  <text x="540" y="36" text-anchor="middle" font-size="22" font-weight="700" fill="#1a1a2e">Enterprise Infrastructure Advisor — GCP Architecture</text>
  <text x="540" y="58" text-anchor="middle" font-size="12" fill="#5f6368">One advisor for Storage · Server · Database · Middleware — zero API keys, all IAM</text>

  <!-- Users -->
  <rect x="30" y="120" width="150" height="80" rx="10" fill="#fff" stroke="#5f6368" stroke-width="1.5"/>
  <text x="105" y="152" text-anchor="middle" font-size="13" font-weight="600" fill="#1a1a2e">Bank Architects</text>
  <text x="105" y="172" text-anchor="middle" font-size="10" fill="#5f6368">via IAP SSO (roadmap)</text>

  <!-- Cloud Run box -->
  <rect x="230" y="90" width="380" height="470" rx="12" fill="#e8f0fe" stroke="#4285f4" stroke-width="2"/>
  <text x="420" y="115" text-anchor="middle" font-size="14" font-weight="700" fill="#1a56b8">Cloud Run — Streamlit App</text>
  <text x="420" y="132" text-anchor="middle" font-size="10" fill="#1a56b8">service account auth · autoscaling</text>

  <!-- LangGraph workflow inside Cloud Run -->
  <rect x="255" y="150" width="330" height="330" rx="10" fill="#fff" stroke="#4285f4" stroke-width="1" stroke-dasharray="4 3"/>
  <text x="420" y="170" text-anchor="middle" font-size="12" font-weight="700" fill="#1a1a2e">LangGraph Conditional Workflow</text>

  <g font-size="11" fill="#1a1a2e">
    <rect x="290" y="185" width="260" height="30" rx="6" fill="#fef7e0" stroke="#f9ab00"/>
    <text x="420" y="204" text-anchor="middle">1 · Market Intel (Google Search grounding)</text>

    <rect x="290" y="227" width="260" height="30" rx="6" fill="#fef7e0" stroke="#f9ab00"/>
    <text x="420" y="246" text-anchor="middle">2 · Architecture Analysis (Gemini JSON)</text>

    <rect x="290" y="269" width="260" height="30" rx="6" fill="#e6f4ea" stroke="#34a853"/>
    <text x="420" y="288" text-anchor="middle">3 · Vendor Match (deterministic registry)</text>

    <rect x="290" y="311" width="260" height="30" rx="6" fill="#fef7e0" stroke="#f9ab00"/>
    <text x="420" y="330" text-anchor="middle">4 · Procurement RAG (Vertex embeddings)</text>

    <rect x="290" y="353" width="260" height="30" rx="6" fill="#fef7e0" stroke="#f9ab00"/>
    <text x="420" y="372" text-anchor="middle">5 · Vendor Evaluation (Gemini) + TCO Engine</text>

    <rect x="290" y="395" width="260" height="30" rx="6" fill="#e6f4ea" stroke="#34a853"/>
    <text x="420" y="414" text-anchor="middle">6 · Compliance Guardrails (policy as code)</text>

    <rect x="290" y="437" width="260" height="30" rx="6" fill="#e8eaed" stroke="#5f6368"/>
    <text x="420" y="456" text-anchor="middle">7 · Report + ARB Decision Record (.docx)</text>
  </g>
  <g stroke="#5f6368" stroke-width="1.2" marker-end="url(#arrow)">
    <line x1="420" y1="215" x2="420" y2="225"/>
    <line x1="420" y1="257" x2="420" y2="267"/>
    <line x1="420" y1="299" x2="420" y2="309"/>
    <line x1="420" y1="341" x2="420" y2="351"/>
    <line x1="420" y1="383" x2="420" y2="393"/>
    <line x1="420" y1="425" x2="420" y2="435"/>
  </g>

  <!-- Legend -->
  <g font-size="9" fill="#5f6368">
    <rect x="262" y="495" width="10" height="10" fill="#fef7e0" stroke="#f9ab00"/><text x="277" y="504">AI (Gemini)</text>
    <rect x="345" y="495" width="10" height="10" fill="#e6f4ea" stroke="#34a853"/><text x="360" y="504">Deterministic</text>
    <rect x="440" y="495" width="10" height="10" fill="#e8eaed" stroke="#5f6368"/><text x="455" y="504">Output</text>
  </g>
  <text x="420" y="540" text-anchor="middle" font-size="10" fill="#1a56b8">Domain registry (domains.py): adding a domain = data-only change</text>

  <!-- Vertex AI -->
  <rect x="680" y="100" width="180" height="150" rx="10" fill="#fce8e6" stroke="#ea4335" stroke-width="1.5"/>
  <text x="770" y="125" text-anchor="middle" font-size="13" font-weight="700" fill="#c5221f">Vertex AI</text>
  <text x="770" y="148" text-anchor="middle" font-size="10" fill="#1a1a2e">Gemini 2.5 Flash</text>
  <text x="770" y="164" text-anchor="middle" font-size="10" fill="#1a1a2e">(JSON mode, thinking off)</text>
  <text x="770" y="186" text-anchor="middle" font-size="10" fill="#1a1a2e">text-embedding-005</text>
  <text x="770" y="208" text-anchor="middle" font-size="10" fill="#1a1a2e">Google Search grounding</text>
  <text x="770" y="230" text-anchor="middle" font-size="9" fill="#5f6368">auth: ADC / roles/aiplatform.user</text>

  <!-- Procurement corpus -->
  <rect x="680" y="280" width="180" height="105" rx="10" fill="#e6f4ea" stroke="#34a853" stroke-width="1.5"/>
  <text x="770" y="305" text-anchor="middle" font-size="13" font-weight="700" fill="#137333">Procurement Corpus</text>
  <text x="770" y="326" text-anchor="middle" font-size="10" fill="#1a1a2e">ELAs · ULAs · frameworks</text>
  <text x="770" y="342" text-anchor="middle" font-size="10" fill="#1a1a2e">PO history · policy docs</text>
  <text x="770" y="364" text-anchor="middle" font-size="9" fill="#5f6368">today: local md → roadmap:</text>
  <text x="770" y="377" text-anchor="middle" font-size="9" fill="#5f6368">Vertex AI RAG Engine over GCS</text>

  <!-- Deploy chain -->
  <rect x="680" y="415" width="180" height="80" rx="10" fill="#f3e8fd" stroke="#a142f4" stroke-width="1.5"/>
  <text x="770" y="440" text-anchor="middle" font-size="13" font-weight="700" fill="#7627bb">Build &amp; Deploy</text>
  <text x="770" y="462" text-anchor="middle" font-size="10" fill="#1a1a2e">Cloud Build · Artifact Registry</text>
  <text x="770" y="479" text-anchor="middle" font-size="10" fill="#1a1a2e">gcloud run deploy --source</text>

  <!-- Roadmap -->
  <rect x="900" y="100" width="150" height="395" rx="10" fill="#fff" stroke="#dadce0" stroke-width="1.5" stroke-dasharray="5 4"/>
  <text x="975" y="125" text-anchor="middle" font-size="12" font-weight="700" fill="#5f6368">Roadmap</text>
  <g font-size="10" fill="#5f6368">
    <text x="975" y="155" text-anchor="middle">IAP (SSO)</text>
    <text x="975" y="185" text-anchor="middle">Firestore</text>
    <text x="975" y="200" text-anchor="middle">(report history)</text>
    <text x="975" y="230" text-anchor="middle">BigQuery + Looker</text>
    <text x="975" y="245" text-anchor="middle">(decision telemetry)</text>
    <text x="975" y="275" text-anchor="middle">Vertex AI RAG Engine</text>
    <text x="975" y="305" text-anchor="middle">CMDB / ServiceNow</text>
    <text x="975" y="320" text-anchor="middle">registry feed</text>
    <text x="975" y="350" text-anchor="middle">Human-in-the-loop</text>
    <text x="975" y="365" text-anchor="middle">approval gates</text>
  </g>

  <!-- Arrows -->
  <g stroke="#5f6368" stroke-width="1.5" fill="none" marker-end="url(#arrow)">
    <line x1="180" y1="160" x2="225" y2="160"/>
    <line x1="612" y1="200" x2="675" y2="180"/>
    <line x1="612" y1="330" x2="675" y2="330"/>
    <line x1="770" y1="255" x2="770" y2="275" stroke-dasharray="3 3"/>
  </g>
  <text x="643" y="172" font-size="9" fill="#5f6368">LLM + embed</text>
  <text x="628" y="322" font-size="9" fill="#5f6368">RAG retrieve</text>
</svg>
